<?xml version="1.0" encoding="utf-8"?>
<!-- Generator: Adobe Illustrator 22.1.0, SVG Export Plug-In . SVG Version: 6.00 Build 0)  -->
<svg version="1.1" id="Calque_1" xmlns="http://www.w3.org/2000/svg" xmlns:xlink="http://www.w3.org/1999/xlink" x="0px" y="0px"
	 viewBox="0 0 603 733.5" style="enable-background:new 0 0 603 733.5;" xml:space="preserve">
<style type="text/css">
	.st0{fill:#1f3379;}
	.st1{fill:none;stroke:#ff4d4d;stroke-miterlimit:10;}
	.st2{fill:none;}
	.st3{fill:#e9c384;}
	.st4{fill:none;stroke:#e9c384;stroke-width:5;stroke-miterlimit:10;}
	.st5{fill:none;stroke:#e9c384;stroke-width:2;stroke-miterlimit:10;}
	.st6{fill:#de242a;stroke:#e9c384;stroke-width:2;stroke-miterlimit:10;}
	.st7{fill:#e9c384;stroke:#e9c384;stroke-width:2;stroke-miterlimit:10;}
</style>
<path class="st0" d="M16.2,295.4C16.2,136.8,144.7,8.3,303.3,8.3s287.1,128.5,287.1,287.1v-1.9v340.6v1.7c0,0-1.9,29.6-29.4,39.9
	l-232.8,42.5c-29.3,4.6-48,0.4-48,0.4l-1.6-0.6L45.8,675.5c-27.5-10.2-29.4-39.9-29.4-39.9V293.5"/>
<path class="st1" d="M301,193.6"/>
<path class="st1" d="M301.3,205.8"/>
<path class="st1" d="M303.9,237.9"/>
<path class="st1" d="M303.9,371.2"/>
<path class="st1" d="M308.8,452.3"/>
<g>
	<path class="st2" d="M451.8,340.8c-18.8,80.5-99.4,130.5-179.9,111.7s-130.5-99.4-111.7-179.9s99.4-130.5,179.9-111.7
		C420.7,179.7,470.7,260.2,451.8,340.8z"/>
	<path class="st3" d="M244.1,104.6l9.3-2.3l12.7,50.9l15.4-3.8l2.1,8.5l-24.7,6.1L244.1,104.6z"/>
	<path class="st3" d="M302.6,121.4h13.2v8.7h-13.2V148h16.6v8.7H293l-0.1-61.2h26.2v8.7h-16.6L302.6,121.4z"/>
	<path class="st3" d="M358,101.5c9.1,2.3,12.4,8.9,10,18.4l-0.5,1.9l-8.8-2.2l0.6-2.5c1.1-4.2-0.2-6.3-3.2-7c-3-0.8-5.1,0.4-6.1,4.7
		c-3.1,12.2,14.6,19.1,10.3,36.1c-2.4,9.5-8.5,13.7-17.7,11.4s-12.5-8.9-10.1-18.4l0.9-3.6l8.8,2.2l-1.1,4.2c-1.1,4.2,0.4,6.2,3.4,7
		s5.2-0.3,6.3-4.5c3.1-12.2-14.6-19.1-10.3-36.1C342.9,103.4,348.9,99.2,358,101.5z"/>
</g>
<g>
	<rect x="166.3" y="569.5" class="st2" width="307.1" height="106"/>
	<path class="st3" d="M198.3,584.6v8c0,9.8-4.7,15.1-14.3,15.1h-4.5v23h-9.6v-61.2h14C193.5,569.5,198.3,574.8,198.3,584.6z
		 M179.4,578.3V599h4.5c3.1,0,4.7-1.4,4.7-5.8V584c0-4.4-1.7-5.8-4.7-5.8L179.4,578.3L179.4,578.3z"/>
	<path class="st3" d="M210.3,584.2c0-9.8,5.2-15.4,14.6-15.4c9.4,0,14.6,5.6,14.6,15.4V616c0,9.8-5.2,15.4-14.6,15.4
		c-9.4,0-14.6-5.6-14.6-15.4V584.2z M219.9,616.6c0,4.4,1.9,6,5,6s5-1.7,5-6v-33c0-4.4-1.9-6-5-6s-5,1.7-5,6V616.6z"/>
	<path class="st3" d="M250.9,569.5h29.7v8.7h-10.1v52.5h-9.6v-52.5h-10V569.5L250.9,569.5z"/>
	<path class="st3" d="M302.4,595.3h13.2v8.7h-13.2v17.9H319v8.7h-26.2v-61.2H319v8.7h-16.6V595.3z"/>
	<path class="st3" d="M364,630.7h-9.7l-1.7-11.1h-11.8l-1.7,11.1h-8.8l9.8-61.2h14.1L364,630.7z M342.1,611.3h9.3l-4.6-30.9
		L342.1,611.3z"/>
	<path class="st3" d="M385.6,569.5v47.2c0,4.4,1.9,5.9,5,5.9s5-1.6,5-5.9v-47.2h9.1v46.6c0,9.8-4.9,15.4-14.3,15.4
		s-14.3-5.6-14.3-15.4v-46.6H385.6z"/>
	<path class="st3" d="M451.3,569.5l-10.1,29.7l10.8,31.5h-10.1l-7.9-24.2l-8,24.2h-9l10.8-31.5l-10.1-29.7h10l7.3,22.6l7.4-22.6
		H451.3z"/>
</g>
<path class="st4" d="M48.9,303.2C48.9,163,162.6,49.3,302.8,49.3S556.7,163,556.7,303.2v-1.6v301.2v1.5c0,0-1.7,26.2-26,35.3
	l-205.9,37.6c-25.9,4.1-42.5,0.4-42.5,0.4l-1.4-0.5l-206-37.7c-24.3-9-26-35.3-26-35.3V301.5"/>
<g>
	<path class="st3" d="M308.8,452.3c-35.4-1.6-36.9-46.3-36.9-46.3l-3.3,1.6c-1.2,3.2-3.5,12.2-5,34.8c-2.1,31.2,30.7,32.8,30.7,32.8
		S311.4,467.9,308.8,452.3z"/>
	<rect x="302.9" y="458" class="st3" width="14.6" height="77.5"/>
	<rect x="330.2" y="458" class="st3" width="14.6" height="77.5"/>
	<g>
		<g>
			<path class="st3" d="M371.3,414c-1.8-1-3.6-2-5.4-2.9c-0.5-0.2-0.9-0.4-1.4-0.6c-0.6-0.2-1.3-0.6-1.9-0.9c-1.6-0.6-3.1-1.1-4.5-2
				c-0.3-0.1-0.6-0.2-0.8-0.4c-0.1,0-0.1-0.1-0.2-0.1v129.1h14.6v-122C371.6,414.2,371.4,414.1,371.3,414z"/>
		</g>
	</g>
	<path class="st3" d="M391.5,424.4c-1.6-0.9-4.5-1.8-6.2-3.4v114.1h14.6v-107C396.8,427.7,394.2,425.8,391.5,424.4z"/>
	<path class="st3" d="M420.4,438.7c-2.1-0.9-4.2-1.9-6-3.3v100H429v-92.7C426.1,441.3,423.3,439.9,420.4,438.7z"/>
	<path class="st3" d="M457.1,456.2c-0.2-0.1-0.4-0.3-0.6-0.4c-0.1,0-0.1,0-0.1-0.1c0,0-0.1,0-0.2,0c-0.3-0.1-0.5-0.2-0.7-0.3
		c-1.3-0.4-2.5-1.1-3.7-1.7c-0.2-0.1-0.4-0.2-0.5-0.3c-1.6-0.7-3.1-1.4-4.6-2.2c0,0,0,0-0.1,0c-1.2-0.4-2.4-0.9-3.4-1.6
		c-0.1-0.1-0.2-0.2-0.3-0.3v86.4h14.6v-79.2C457.4,456.4,457.3,456.3,457.1,456.2z"/>
	<rect x="276.9" y="458" class="st3" width="14.6" height="77.5"/>
	<g>
		<g>
			<path class="st3" d="M264.2,407.2c-0.3,0.1-0.5,0.2-0.8,0.4c-1.4,0.8-2.9,1.4-4.5,2c-0.6,0.3-1.2,0.6-1.9,0.9
				c-0.5,0.2-0.9,0.4-1.4,0.6c-1.8,0.9-3.5,1.9-5.4,2.9c-0.2,0.1-0.3,0.2-0.5,0.2v122h14.6L264.2,407.2
				C264.3,407.2,264.3,407.2,264.2,407.2z"/>
		</g>
	</g>
	<path class="st3" d="M230.1,424.4c1.6-0.9,4.5-1.8,6.2-3.4v114.1h-14.6v-107C224.8,427.7,227.4,425.8,230.1,424.4z"/>
	<path class="st3" d="M201.2,438.7c2.1-0.9,4.1-1.9,6-3.3v100h-14.6v-92.7C195.5,441.3,198.3,439.9,201.2,438.7z"/>
	<path class="st3" d="M310.7,452.4c37.4-1.6,39.1-49,39.1-49l3.5,1.7c1.2,3.4,3.7,12.9,5.3,36.8c2.2,33-32.5,34.7-32.5,34.7
		S307.9,468.9,310.7,452.4z"/>
</g>
<g>
	<path class="st5" d="M309.9,430.5c-73.3-27-66.8-112.8-66.8-112.8l3.4-7.3l-5.2-7.8c0,0-1-97.2,67.6-97.2s71.2,96.7,71.2,96.7
		l-5.7,8.8l1.9,6.8c0,0,6.5,85.8-66.8,112.8"/>
	<path class="st5" d="M304.7,247.9c0,0-41.6-7.3-61.9,34.3"/>
	<path class="st5" d="M241.2,287.5c0,0-31.2,18.7,0.5,38"/>
	<path class="st5" d="M378.9,286.6c0,0,30.1,20.4-2.7,37.9"/>
	<line class="st5" x1="309.4" y1="316.7" x2="309.4" y2="337"/>
	<path class="st5" d="M344.9,311.5c0,3.8-3.1,6.8-6.8,6.8c-3.8,0-6.8-3.1-6.8-6.8c0-3.8,3.1-6.8,6.8-6.8
		C341.8,304.6,344.9,307.7,344.9,311.5z"/>
	<path class="st5" d="M288.3,311.5c0,3.8-3.1,6.8-6.8,6.8c-3.8,0-6.8-3.1-6.8-6.8c0-3.8,3.1-6.8,6.8-6.8
		C285.2,304.6,288.3,307.7,288.3,311.5z"/>
	<path class="st5" d="M325,311.3c0,0,12.5-14.4,27.7,0.4"/>
	<path class="st5" d="M268.6,311.3c0,0,12.5-14.4,27.7,0.4"/>
	<path class="st5" d="M293.8,301.5c0,0-19.1,1.6-30-4.3"/>
	<path class="st5" d="M294.9,337.4c0,0,14.4,26.1,28.9,0"/>
	<path class="st5" d="M302.3,197.8l-0.3,7c0,0-16.6,93.1,75.4,75.9C377.5,280.7,393.1,188.7,302.3,197.8z"/>
	<path class="st5" d="M374.9,277.7C348.4,209.8,302,218,302,218"/>
	<path class="st5" d="M375.7,280.5c0,0-51.1-45.2-71.8-42.5"/>
	<path class="st5" d="M314.4,266.4c0,0,47.6,12.5,55.8,12.9"/>
	<path class="st5" d="M243.5,273.4c0,0,27.3-64.7,56.6-59.3"/>
	<path class="st5" d="M244.2,276.2c0,0,23.8-48.4,55-47.6"/>
	<path class="st5" d="M317.5,364.4c0,0-6.8,5.2-13.3-0.8"/>
	<path class="st5" d="M191.9,445.2c0,0.1,0,0.2,0,0.3l76.7-37.8c0.4-1.2,0.7-1.6,0.7-1.6L191.9,445.2z"/>
	<g>
		<path class="st6" d="M184.8,398.2l43.4-5.2c7.8,0.5,4.9-7,4.9-7l-10.4-79c0,0,1.6-7.8-7.5-6.2c-9.1,1.6-45.2,5.7-45.2,5.7
			s-7.3-0.8-5.7,7.5s5.7,45.2,5.7,45.2l3.6,29.6"/>
		<g>
			<g>
				<g>
					<path class="st5" d="M126.5,533.4l50.4,0.5l7.1-54.3c12.4-19.5,2-27.8,2-27.8c12.2-14.3-2.6-20-2.6-20
						c2.1-5.2-9.4-12.2-9.4-12.2c-4.9-11.7-11.8-9.4-11.8-9.4s7.4-5.2,15.9-9.6s-1-8.3-1-8.3l-9.9,1.6l-17.3,7l0.1,0.8l-12.9,17.2
						c-10.9,17.7-1.7,21.6-1.7,21.6l10.3,30.9c0,0,0.8,12,0.9,16.6c0.1,4.7-19.4,44.7-19.4,44.7"/>
				</g>
				<line class="st5" x1="143.1" y1="427.9" x2="161.4" y2="411"/>
				<path class="st5" d="M156.9,432"/>
				<line class="st5" x1="174" y1="419.6" x2="155.6" y2="432.3"/>
				<path class="st5" d="M182.4,432c0,0-10.4,8.3-14.6,9.4"/>
				<path class="st5" d="M185.2,450.8c0,0-4.4,2.6-9.6,1.6"/>
			</g>
			<path class="st5" d="M185.8,400.2c0,0,3.9,5.9-11.7,16"/>
		</g>
	</g>
	<path class="st5" d="M322.4,297.3c0,0,24-11.6,36.5-4.5"/>
	<line class="st5" x1="457.6" y1="456.5" x2="351.8" y2="404.2"/>
</g>
<g>
	<path class="st7" d="M314.9,356.3c0,0,12.7-12.3,27.7-1.4c0,0,8.6,6.8,15,3.4c6.3-3.4-7.7,10.7-22.9,6.4
		C334.7,364.7,327.4,365.6,314.9,356.3z"/>
	<path class="st7" d="M306,356.5c0,0-12.7-12.2-27.7-1.4c0,0-8.6,6.8-15,3.4s7.7,10.7,22.9,6.4C286.3,364.9,293.6,365.9,306,356.5z"
		/>
	<circle class="st7" cx="281.5" cy="311.5" r="1.6"/>
	<circle class="st7" cx="338" cy="311.5" r="1.6"/>
</g>
<path class="st4" d="M16.4,296C16.4,137.4,144.9,8.9,303.5,8.9S590.6,137.4,590.6,296v-1.9v340.6v1.7c0,0-1.9,29.6-29.4,39.9
	l-232.8,42.5c-29.3,4.6-48,0.4-48,0.4l-1.6-0.6L45.9,676.1c-27.5-10.2-29.4-39.9-29.4-39.9V294"/>
</svg>
